<mxfile host="app.diagrams.net" modified="2023-02-09T07:35:34.096Z" agent="5.0 (Windows NT 10.0; Win64; x64) AppleWebKit/537.36 (KHTML, like Gecko) Chrome/109.0.0.0 Safari/537.36" etag="HvMn346aZ5hjws6aXGgE" version="20.8.16" type="github">
  <diagram id="9qLbLH6k9e7wicqBftCI" name="第 1 页">
    <mxGraphModel dx="1050" dy="573" grid="0" gridSize="10" guides="1" tooltips="1" connect="1" arrows="1" fold="1" page="1" pageScale="1" pageWidth="2339" pageHeight="3300" math="0" shadow="0">
      <root>
        <mxCell id="0" />
        <mxCell id="1" parent="0" />
        <mxCell id="wZmkeNp5cZ4xpY8wdVEU-10" style="edgeStyle=orthogonalEdgeStyle;rounded=0;orthogonalLoop=1;jettySize=auto;html=1;exitX=0.5;exitY=1;exitDx=0;exitDy=0;fontSize=18;strokeWidth=3;" parent="1" source="wZmkeNp5cZ4xpY8wdVEU-1" target="wZmkeNp5cZ4xpY8wdVEU-3" edge="1">
          <mxGeometry relative="1" as="geometry" />
        </mxCell>
        <mxCell id="wZmkeNp5cZ4xpY8wdVEU-1" value="&lt;font style=&quot;font-size: 18px;&quot;&gt;&lt;b&gt;get_action()&lt;/b&gt;&lt;/font&gt;" style="rounded=1;whiteSpace=wrap;html=1;fillColor=#dae8fc;strokeColor=#6c8ebf;" parent="1" vertex="1">
          <mxGeometry x="412" y="102" width="120" height="60" as="geometry" />
        </mxCell>
        <mxCell id="wZmkeNp5cZ4xpY8wdVEU-11" style="edgeStyle=orthogonalEdgeStyle;rounded=0;orthogonalLoop=1;jettySize=auto;html=1;exitX=0.5;exitY=1;exitDx=0;exitDy=0;entryX=0.5;entryY=0;entryDx=0;entryDy=0;fontSize=18;strokeWidth=3;" parent="1" source="wZmkeNp5cZ4xpY8wdVEU-3" target="wZmkeNp5cZ4xpY8wdVEU-8" edge="1">
          <mxGeometry relative="1" as="geometry" />
        </mxCell>
        <mxCell id="wZmkeNp5cZ4xpY8wdVEU-14" style="edgeStyle=orthogonalEdgeStyle;rounded=0;orthogonalLoop=1;jettySize=auto;html=1;exitX=0.5;exitY=1;exitDx=0;exitDy=0;strokeWidth=3;fontSize=18;" parent="1" source="wZmkeNp5cZ4xpY8wdVEU-3" target="wZmkeNp5cZ4xpY8wdVEU-9" edge="1">
          <mxGeometry relative="1" as="geometry" />
        </mxCell>
        <mxCell id="wZmkeNp5cZ4xpY8wdVEU-15" style="edgeStyle=orthogonalEdgeStyle;rounded=0;orthogonalLoop=1;jettySize=auto;html=1;exitX=0.5;exitY=1;exitDx=0;exitDy=0;entryX=0.5;entryY=0;entryDx=0;entryDy=0;strokeWidth=3;fontSize=18;" parent="1" source="wZmkeNp5cZ4xpY8wdVEU-3" target="wZmkeNp5cZ4xpY8wdVEU-6" edge="1">
          <mxGeometry relative="1" as="geometry" />
        </mxCell>
        <mxCell id="wZmkeNp5cZ4xpY8wdVEU-16" style="edgeStyle=orthogonalEdgeStyle;rounded=0;orthogonalLoop=1;jettySize=auto;html=1;exitX=0.5;exitY=1;exitDx=0;exitDy=0;strokeWidth=3;fontSize=18;" parent="1" source="wZmkeNp5cZ4xpY8wdVEU-3" target="wZmkeNp5cZ4xpY8wdVEU-7" edge="1">
          <mxGeometry relative="1" as="geometry" />
        </mxCell>
        <mxCell id="wZmkeNp5cZ4xpY8wdVEU-3" value="&lt;font style=&quot;font-size: 18px;&quot;&gt;&lt;b&gt;evaluate_all_legal_moves&lt;/b&gt;&lt;b style=&quot;&quot;&gt;()&lt;/b&gt;&lt;/font&gt;" style="rounded=1;whiteSpace=wrap;html=1;fillColor=#d5e8d4;strokeColor=#82b366;" parent="1" vertex="1">
          <mxGeometry x="320.5" y="194" width="303" height="60" as="geometry" />
        </mxCell>
        <mxCell id="wZmkeNp5cZ4xpY8wdVEU-4" value="&lt;span style=&quot;font-size: 18px;&quot;&gt;&lt;b&gt;scan_updown()&lt;/b&gt;&lt;/span&gt;" style="rounded=1;whiteSpace=wrap;html=1;fillColor=#d5e8d4;strokeColor=#82b366;" parent="1" vertex="1">
          <mxGeometry x="82" y="312" width="160" height="60" as="geometry" />
        </mxCell>
        <mxCell id="wZmkeNp5cZ4xpY8wdVEU-5" value="&lt;span style=&quot;font-size: 18px;&quot;&gt;&lt;b&gt;scan_updown()&lt;/b&gt;&lt;/span&gt;" style="rounded=1;whiteSpace=wrap;html=1;fillColor=#d5e8d4;strokeColor=#82b366;" parent="1" vertex="1">
          <mxGeometry x="287" y="312" width="160" height="60" as="geometry" />
        </mxCell>
        <mxCell id="wZmkeNp5cZ4xpY8wdVEU-24" style="edgeStyle=orthogonalEdgeStyle;rounded=0;orthogonalLoop=1;jettySize=auto;html=1;exitX=0.5;exitY=1;exitDx=0;exitDy=0;entryX=0.5;entryY=0;entryDx=0;entryDy=0;strokeWidth=3;fontSize=18;" parent="1" source="wZmkeNp5cZ4xpY8wdVEU-6" target="wZmkeNp5cZ4xpY8wdVEU-19" edge="1">
          <mxGeometry relative="1" as="geometry" />
        </mxCell>
        <mxCell id="wZmkeNp5cZ4xpY8wdVEU-6" value="&lt;span style=&quot;font-size: 18px;&quot;&gt;&lt;b&gt;scan_left_updown()&lt;/b&gt;&lt;/span&gt;" style="rounded=1;whiteSpace=wrap;html=1;fillColor=#ffe6cc;strokeColor=#d79b00;" parent="1" vertex="1">
          <mxGeometry x="492" y="312" width="190" height="60" as="geometry" />
        </mxCell>
        <mxCell id="wZmkeNp5cZ4xpY8wdVEU-27" style="edgeStyle=orthogonalEdgeStyle;rounded=0;orthogonalLoop=1;jettySize=auto;html=1;exitX=0.5;exitY=1;exitDx=0;exitDy=0;strokeWidth=3;fontSize=18;" parent="1" source="wZmkeNp5cZ4xpY8wdVEU-7" target="wZmkeNp5cZ4xpY8wdVEU-19" edge="1">
          <mxGeometry relative="1" as="geometry" />
        </mxCell>
        <mxCell id="wZmkeNp5cZ4xpY8wdVEU-7" value="&lt;span style=&quot;font-size: 18px;&quot;&gt;&lt;b&gt;scan_right_updown()&lt;/b&gt;&lt;/span&gt;" style="rounded=1;whiteSpace=wrap;html=1;fillColor=#ffe6cc;strokeColor=#d79b00;" parent="1" vertex="1">
          <mxGeometry x="722" y="312" width="210" height="60" as="geometry" />
        </mxCell>
        <mxCell id="wZmkeNp5cZ4xpY8wdVEU-8" value="&lt;span style=&quot;font-size: 18px;&quot;&gt;&lt;b&gt;scan_updown()&lt;/b&gt;&lt;/span&gt;" style="rounded=1;whiteSpace=wrap;html=1;fillColor=#d5e8d4;strokeColor=#82b366;" parent="1" vertex="1">
          <mxGeometry x="82" y="312" width="160" height="60" as="geometry" />
        </mxCell>
        <mxCell id="wZmkeNp5cZ4xpY8wdVEU-9" value="&lt;span style=&quot;font-size: 18px;&quot;&gt;&lt;b&gt;scan_leftright()&lt;/b&gt;&lt;/span&gt;" style="rounded=1;whiteSpace=wrap;html=1;fillColor=#d5e8d4;strokeColor=#82b366;" parent="1" vertex="1">
          <mxGeometry x="287" y="312" width="160" height="60" as="geometry" />
        </mxCell>
        <mxCell id="wZmkeNp5cZ4xpY8wdVEU-20" style="edgeStyle=orthogonalEdgeStyle;rounded=0;orthogonalLoop=1;jettySize=auto;html=1;exitX=0.5;exitY=1;exitDx=0;exitDy=0;strokeWidth=3;fontSize=18;" parent="1" source="wZmkeNp5cZ4xpY8wdVEU-17" target="wZmkeNp5cZ4xpY8wdVEU-19" edge="1">
          <mxGeometry relative="1" as="geometry" />
        </mxCell>
        <mxCell id="wZmkeNp5cZ4xpY8wdVEU-17" value="&lt;span style=&quot;font-size: 18px;&quot;&gt;&lt;b&gt;scan_updown()&lt;/b&gt;&lt;/span&gt;" style="rounded=1;whiteSpace=wrap;html=1;fillColor=#ffe6cc;strokeColor=#d79b00;" parent="1" vertex="1">
          <mxGeometry x="82" y="312" width="160" height="60" as="geometry" />
        </mxCell>
        <mxCell id="wZmkeNp5cZ4xpY8wdVEU-23" style="edgeStyle=orthogonalEdgeStyle;rounded=0;orthogonalLoop=1;jettySize=auto;html=1;exitX=0.5;exitY=1;exitDx=0;exitDy=0;entryX=0.5;entryY=0;entryDx=0;entryDy=0;strokeWidth=3;fontSize=18;" parent="1" source="wZmkeNp5cZ4xpY8wdVEU-18" target="wZmkeNp5cZ4xpY8wdVEU-19" edge="1">
          <mxGeometry relative="1" as="geometry" />
        </mxCell>
        <mxCell id="wZmkeNp5cZ4xpY8wdVEU-18" value="&lt;span style=&quot;font-size: 18px;&quot;&gt;&lt;b&gt;scan_leftright()&lt;/b&gt;&lt;/span&gt;" style="rounded=1;whiteSpace=wrap;html=1;fillColor=#ffe6cc;strokeColor=#d79b00;" parent="1" vertex="1">
          <mxGeometry x="287" y="312" width="160" height="60" as="geometry" />
        </mxCell>
        <mxCell id="wZmkeNp5cZ4xpY8wdVEU-19" value="&lt;font style=&quot;font-size: 18px;&quot;&gt;&lt;b&gt;&lt;span style=&quot;background-color: initial;&quot;&gt;evaluate_one_move&lt;/span&gt;()&lt;/b&gt;&lt;/font&gt;" style="rounded=1;whiteSpace=wrap;html=1;fillColor=#e1d5e7;strokeColor=#9673a6;" parent="1" vertex="1">
          <mxGeometry x="342" y="432" width="260" height="60" as="geometry" />
        </mxCell>
      </root>
    </mxGraphModel>
  </diagram>
</mxfile>
